<svg xmlns="http://www.w3.org/2000/svg" width="144" height="144" viewBox="0 0 144 144">
    <g fill="#414D55">
        <path d="M27.023 33.846l.045-.04c3.397-3.355 7.469-5.947 11.944-7.605 2.142-.667 4.396-.89 6.626-.656 1.177.096 2.347.272 3.5.526 1.188.25 2.347.685 3.631.933l.16.03c.408.079.816-.131.989-.51.173-.377.066-.824-.258-1.083-1.054-.885-2.182-1.679-3.371-2.371-1.249-.674-2.576-1.186-3.953-1.527-2.847-.778-5.858-.719-8.675.168-5.518 1.704-9.86 5.994-11.637 11.498-.058.203-.01.422.13.582.226.256.614.28.87.055zM82.338 21.711c-2.816-.887-5.826-.946-8.674-.168-1.376.34-2.704.853-3.952 1.527-1.19.692-2.317 1.486-3.371 2.37-.325.26-.432.708-.259 1.084.175.378.583.589.99.51l.16-.03c1.284-.248 2.442-.683 3.63-.932 1.153-.256 2.323-.431 3.5-.527 2.23-.233 4.484-.011 6.625.656 4.476 1.657 8.547 4.25 11.944 7.606l.047.04c.206.18.507.204.738.055.23-.148.336-.43.26-.694-1.777-5.503-6.12-9.793-11.637-11.497h-.001zM50.894 59.292c.948.954 2.462.942 3.397-.026.935-.969.947-2.535.026-3.518-3.77-3.604-8.686-5.65-13.816-5.748-5.132.099-10.048 2.144-13.818 5.748-.921.983-.909 2.55.026 3.518s2.449.98 3.397.026c2.855-2.673 6.546-4.193 10.395-4.279 3.843.11 7.526 1.625 10.393 4.28zM79.5 50c-5.13.099-10.047 2.144-13.817 5.748-.92.983-.91 2.55.026 3.518.935.968 2.448.98 3.398.026C71.962 56.62 75.65 55.1 79.5 55.013c3.845.11 7.527 1.625 10.393 4.28.95.953 2.463.941 3.398-.027.935-.969.947-2.535.026-3.518-3.77-3.604-8.687-5.65-13.817-5.748zM79.2 72H40.801c-2.65.003-4.797 2.136-4.801 4.77v2.384c.02 10.956 7.548 20.493 18.253 23.125.036.016.078.017.115.03 6.162 1.512 12.677.52 18.102-2.753 5.425-3.274 9.313-8.56 10.805-14.69.016-.037.016-.08.03-.117.454-1.831.688-3.71.695-5.595V76.77c-.003-2.633-2.15-4.766-4.8-4.769zm-38.399 7.154V76.77h38.4v2.385c-.006.797-.062 1.594-.168 2.384H67.2c-7.949.009-14.391 6.41-14.4 14.308v.98c-7.244-2.918-11.99-9.905-11.999-17.672zm19.2 19.077c-.804-.006-1.604-.061-2.4-.166v-2.22c.005-5.265 4.3-9.532 9.599-9.538h10.586c-2.936 7.2-9.969 11.913-17.785 11.924z"/>
        <path d="M134.398 33.6c0-8.623-13.479-23.89-15.017-25.603-.467-.486-1.112-.76-1.786-.76-.675 0-1.32.274-1.787.76-.405.452-1.65 1.861-3.25 3.828C100.723 4.009 86.3 0 69.584 0 46.982-.016 25.887 11.334 13.45 30.203 1.014 49.07-1.097 72.928 7.834 93.686c-1.447 2.218-3.055 4.327-4.811 6.31-4.386 4.945-3.948 12.505.98 16.912 4.926 4.406 12.49 4 16.918-.907.385-.431.74-.887 1.116-1.327 2.116 2.118 4.373 4.094 6.754 5.913-4.52 3.142-7.216 8.296-7.218 13.799v2.405c.002 3.977 3.224 7.202 7.202 7.209H98.39c3.976-.004 7.198-3.226 7.202-7.2v-12.897c.288-.186.572-.378.86-.568.25.27.463.564.743.815 4.942 4.409 12.52 3.988 16.943-.942 12.593-14.096 19.65-32.277 19.862-51.177-.147-12.77-3.492-25.302-9.73-36.447.082-.658.125-1.32.128-1.984zm-16.803-20.34c5.242 6.217 12.002 15.76 12.002 20.34 0 6.628-5.373 12-12.002 12-6.63 0-12.003-5.372-12.003-12 0-4.575 6.76-14.121 12.003-20.34zM17.34 112.805c-2.71 2.847-7.167 3.093-10.173.564-2.952-2.664-3.2-7.21-.556-10.18 1.287-1.444 2.472-2.952 3.596-4.488 2.373 4.45 5.239 8.618 8.545 12.425-.471.56-.928 1.134-1.412 1.68zm9.035 23.987v-2.405c.001-6.631 5.37-12.01 12.003-12.026h2.401c4.445.002 8.523 2.47 10.589 6.406-.053.155-.128.321-.171.47-.543 1.66-.82 3.395-.816 5.141v2.424c.008.82.157 1.631.442 2.4H28.775c-1.328-.004-2.403-1.082-2.4-2.41zm72.016 2.41H57.581c-1.325-.002-2.4-1.075-2.4-2.401v-2.424c0-1.26.201-2.511.595-3.708.115-.378.25-.75.403-1.113 1.913-4.371 6.232-7.198 11.004-7.201h2.401c5.296.013 10.074 3.183 12.144 8.057.017.052.06.084.08.133-.005.11-.003.223.009.334.248 1.09 1.217 1.864 2.336 1.865.181 0 .362-.02.537-.061 5.605-1.292 11.017-3.308 16.101-5.996V136.8c-.001 1.326-1.076 2.399-2.4 2.4zM139.2 71.968c-.197 17.739-6.819 34.805-18.637 48.036-2.71 2.846-7.167 3.092-10.173.562-2.95-2.662-3.2-7.205-.56-10.174 8.806-9.847 13.962-22.42 14.603-35.613.042-.857-.378-1.67-1.099-2.134-.722-.464-1.636-.508-2.398-.115-.762.393-1.258 1.162-1.298 2.019-.588 12.095-5.315 23.62-13.391 32.646-2.909 3.29-3.787 7.907-2.289 12.035-.674.449-1.342.915-2.012 1.334-5.08 3.069-10.573 5.39-16.314 6.894-3.075-6.044-9.266-9.865-16.047-9.905h-2.4c-5.16.01-10.026 2.395-13.196 6.463-3.175-4.07-8.047-6.451-13.21-6.457h-2.4c-1.576.004-3.143.229-4.654.67C11.44 102.6 1.867 74.326 10.07 48.375 18.274 22.425 42.362 4.788 69.584 4.8c14.11-.393 28.026 3.37 40.013 10.821-4.151 5.56-8.806 12.91-8.806 17.979-.005 7.613 5.112 14.276 12.47 16.235 7.358 1.958 15.113-1.279 18.894-7.886 4.488 9.381 6.891 19.623 7.044 30.02z"/>
    </g>
</svg>
